<svg height="512" viewBox="0 0 60 61" width="512" xmlns="http://www.w3.org/2000/svg"><g id="Page-1" fill="none" fill-rule="evenodd"><g id="056---Listen-To-Podcast" fill-rule="nonzero"><path id="Shape" d="m13 28v18c0 1.1045695-.8954305 2-2 2h-5c-.55228475 0-1-.4477153-1-1v-20c0-.5522847.44771525-1 1-1h5c1.1045695 0 2 .8954305 2 2z" fill="#607d8b"/><path id="Shape" d="m11 26h-3c1.1045695 0 2 .8954305 2 2v18c0 1.1045695-.8954305 2-2 2h3c1.1045695 0 2-.8954305 2-2v-18c0-1.1045695-.8954305-2-2-2z" fill="#37474f"/><path id="Shape" d="m5 29v16h-2c-1.1045695 0-2-.8954305-2-2v-12c0-1.1045695.8954305-2 2-2z" fill="#ff9801"/><path id="Shape" d="m55 27v20c0 .5522847-.4477153 1-1 1h-5c-1.1045695 0-2-.8954305-2-2v-18c0-1.1045695.8954305-2 2-2h5c.5522847 0 1 .4477153 1 1z" fill="#607d8b"/><path id="Shape" d="m54 26h-3c.5522847 0 1 .4477153 1 1v20c0 .5522847-.4477153 1-1 1h3c.5522847 0 1-.4477153 1-1v-20c0-.5522847-.4477153-1-1-1z" fill="#37474f"/><path id="Shape" d="m59 31v12c0 1.1045695-.8954305 2-2 2h-2v-16h2c1.1045695 0 2 .8954305 2 2z" fill="#ff9801"/><path id="Shape" d="m54 26h-4c0-11.045695-8.954305-20-20-20s-20 8.954305-20 20h-4c0-13.254834 10.745166-24 24-24s24 10.745166 24 24z" fill="#ff5722"/><path id="Shape" d="m39.0000014 41-.0000014 1c.0023509 4.2018973-2.9031659 7.8462455-7 8.78-1.3171967.293363-2.6828033.293363-4 0-4.0968341-.9337545-7.0023509-4.5781027-7-8.78l-.0000014-1z" fill="#ffdc00"/><path id="Shape" d="m36 41v1c.0023509 4.2018973-2.9031659 7.8462455-7 8.78-.1648098.0371996-.331811.0639198-.5.08 1.1600349.2107694 2.3508067.1835518 3.5-.08 4.0968341-.9337545 7.0023509-4.5781027 7-8.78l.0000014-1z" fill="#fec108"/><path id="Shape" d="m39 28v13h-18v-13c0-4.9705627 4.0294373-9 9-9s9 4.0294373 9 9z" fill="#7f8e94"/><path id="Shape" d="m36.36 21.64c-1.6862083-1.6883098-3.9738558-2.6378994-6.36-2.64-.5032128.001044-1.0052854.0479041-1.5.14 4.3250456.7310606 7.4931175 4.4736095 7.5 8.86v13h3v-13c-.0021006-2.3861442-.9516902-4.6737917-2.64-6.36z" fill="#545c60"/><path id="Shape" d="m32 50.78v5.22h-4v-5.22c1.3171967.293363 2.6828033.293363 4 0z" fill="#37474f"/><path id="Shape" d="m39 58v2h-18v-2c0-1.1045695.8954305-2 2-2h14c1.1045695 0 2 .8954305 2 2z" fill="#02a9f4"/><path id="Shape" d="m37 56h-3c1.1045695 0 2 .8954305 2 2v2h3v-2c0-1.1045695-.8954305-2-2-2z" fill="#0377bc"/><g fill="#000"><path id="Shape" d="m57 28h-1v-1c-.0007321-.7137984-.3818319-1.373101-1-1.73 0-13.8071187-11.1928813-25-25-25s-25 11.1928813-25 25c-.61816808.356899-.99926785 1.0162016-1 1.73v1h-1c-1.65685425 0-3 1.3431458-3 3v12c0 1.6568542 1.34314575 3 3 3h1v1c0 1.1045695.8954305 2 2 2h5c1.6568542 0 3-1.3431458 3-3v-18c.0002274-1.6375228-1.3127046-2.972708-2.95-3 .5187037-10.1014148 8.8602764-18.02564124 18.975-18.02564124s18.4562963 7.92422644 18.975 18.02564124c-1.6568542 0-3 1.3431458-3 3v18c0 1.6568542 1.3431458 3 3 3h5c1.1045695 0 2-.8954305 2-2v-1h1c1.6568542 0 3-1.3431458 3-3v-12c0-1.6568542-1.3431458-3-3-3zm-54 16c-.55228475 0-1-.4477153-1-1v-12c0-.5522847.44771525-1 1-1h1v14zm9-16v18c0 .5522847-.4477153 1-1 1h-5v-20h5c.5522847 0 1 .4477153 1 1zm18-23c-11.1990817.01396033-20.41671868 8.8136138-20.95 20h-2.05c0-12.7025492 10.2974508-23 23-23s23 10.2974508 23 23h-2c-.5342036-11.2057007-9.7815804-20.01272618-21-20zm24 42h-5c-.5522847 0-1-.4477153-1-1v-18c0-.5522847.4477153-1 1-1h5zm4-4c0 .5522847-.4477153 1-1 1h-1v-14h1c.5522847 0 1 .4477153 1 1z"/><path id="Shape" d="m43.05 18.13c.2336522.0004565.4600879-.0809188.64-.23.2045071-.1695482.3331478-.4135008.3575369-.6780285s-.057478-.5278889-.2275369-.7319715c-3.419936-4.0981495-8.4823234-6.4671079-13.82-6.4671079s-10.400064 2.3689584-13.82 6.4671079c-.3534622.4252593-.2952593 1.0565378.13 1.41s1.0565378.2952593 1.41-.13c3.0399666-3.6396197 7.5378245-5.7432169 12.28-5.7432169s9.2400334 2.1035972 12.28 5.7432169c.1903565.2285401.4725678.360483.77.36z"/><path id="Shape" d="m40.9 20.86c.4353218-.3374567.5158001-.963399.18-1.4-2.6510014-3.4323733-6.7430662-5.4423368-11.08-5.4423368s-8.4289986 2.0099635-11.08 5.4423368c-.2965127.4372993-.2016771 1.0298079.2165123 1.3527136.4181894.3229058 1.0154171.2647752 1.3634877-.1327136 2.272144-2.9442198 5.7809855-4.6685609 9.5-4.6685609s7.227856 1.7243411 9.5 4.6685609c.1887926.245247.4805034.3892561.79.39.2209494-.0006878.4354502-.0745323.61-.21z"/><path id="Shape" d="m40 42v-14c0-5.5228475-4.4771525-10-10-10s-10 4.4771525-10 10v14c-.0002655 4.3674007 2.8337653 8.2297798 7 9.54v3.46h-4c-1.6568542 0-3 1.3431458-3 3v2c0 .5522847.4477153 1 1 1h18c.5522847 0 1-.4477153 1-1v-2c0-1.6568542-1.3431458-3-3-3h-4v-3.46c4.1662347-1.3102202 7.0002655-5.1725993 7-9.54zm-10-22c4.418278 0 8 3.581722 8 8h-5c-.5522847 0-1 .4477153-1 1s.4477153 1 1 1h5v2h-5c-.5522847 0-1 .4477153-1 1s.4477153 1 1 1h5v2h-5c-.5522847 0-1 .4477153-1 1s.4477153 1 1 1h5v2h-16v-2h5c.5522847 0 1-.4477153 1-1s-.4477153-1-1-1h-5v-2h5c.5522847 0 1-.4477153 1-1s-.4477153-1-1-1h-5v-2h5c.5522847 0 1-.4477153 1-1s-.4477153-1-1-1h-5c0-4.418278 3.581722-8 8-8zm-8 22h16c0 4.418278-3.581722 8-8 8s-8-3.581722-8-8zm16 16v1h-16v-1c0-.5522847.4477153-1 1-1h14c.5522847 0 1 .4477153 1 1zm-7-3h-2v-3h1 1z"/></g></g></g></svg>